<svg xmlns="http://www.w3.org/2000/svg" viewBox="0 0 64 64">
  <rect width="64" height="64" rx="14" fill="#172033"/>
  <path d="M16 34l4.2-10.2A8 8 0 0 1 27.6 19h8.8a8 8 0 0 1 7.4 4.8L48 34" fill="#ffffff"/>
  <path d="M13 34h38a6 6 0 0 1 6 6v8a3 3 0 0 1-3 3h-4.2a7 7 0 0 1-13.6 0H27.8a7 7 0 0 1-13.6 0H10a3 3 0 0 1-3-3v-8a6 6 0 0 1 6-6z" fill="#22c55e"/>
  <path d="M22.5 25.8A5 5 0 0 1 27.1 23h9.8a5 5 0 0 1 4.6 2.8L44.8 34H19.2l3.3-8.2z" fill="#dff7ea"/>
  <circle cx="21" cy="51" r="4.5" fill="#172033"/>
  <circle cx="43" cy="51" r="4.5" fill="#172033"/>
  <path d="M13 41h7M44 41h7" stroke="#ffffff" stroke-width="3" stroke-linecap="round"/>
</svg>
